PathFileType	4	(X/Y/Z)	OpenSim_Sub02_EMGBaseline_Magnet.trc
DataRate	CameraRate	NumFrames	NumMarkers	Units	OrigDataRate	OrigDataStartFrame	OrigNumFrames
100	100	26	8	m	100	1682	6727
Frame#	Time	torso_imu_offset_imu	pelvis_imu_offset_imu	tibia_r_imu_offset_imu	femur_r_imu_offset_imu	tibia_l_imu_offset_imu	femur_l_imu_offset_imu	toes_r_imu_offset_imu	toes_l_imu_offset_imu
				X1	Y1	Z1	X2	Y2	Z2	X3	Y3	Z3	X4	Y4	Z4	X5	Y5	Z5	X6	Y6	Z6	X7	Y7	Z7	X8		Y8	Z8	

1682	16.81000000	-0.94073481	-0.16619837	0.05144084	-0.66355551	0.16484496	-0.63245615	-0.32680830	-0.73114759	-0.27319624	-0.66716582	-0.45702837	0.25946720	-0.78688870	0.22680399	0.07056257	-0.75189420	0.24400953	0.28404182	-0.74290647	-0.45126284	-0.40197127	-0.46647305	-0.24078314	-0.64162188
1683	16.82000000	-0.94395686	-0.17053730	0.04686357	-0.66472998	0.16080864	-0.62795846	-0.31530343	-0.73485561	-0.27021823	-0.66242316	-0.46332518	0.25372375	-0.78397234	0.23258013	0.08025675	-0.74924678	0.25501849	0.28512988	-0.75000619	-0.45475889	-0.38555251	-0.46949984	-0.24598767	-0.63598649
1684	16.83000000	-0.94377749	-0.17310579	0.04409362	-0.66730121	0.15752610	-0.62682839	-0.30733098	-0.73372758	-0.26958910	-0.66223742	-0.46548853	0.25255418	-0.77879104	0.23423237	0.08018216	-0.74391732	0.25553899	0.28738428	-0.76128115	-0.45281573	-0.37027358	-0.48380647	-0.23840270	-0.62705356
1685	16.84000000	-0.94054080	-0.17805566	0.04019068	-0.66780357	0.16355485	-0.62827912	-0.30025101	-0.74316746	-0.28353624	-0.66055204	-0.46991831	0.24121630	-0.77695060	0.24324062	0.08509798	-0.73598945	0.26439078	0.29046077	-0.76337284	-0.45297232	-0.36141206	-0.50436167	-0.23350642	-0.61577866
1686	16.85000000	-0.94087918	-0.17982781	0.03333377	-0.67100376	0.16646539	-0.62378863	-0.28307659	-0.74837434	-0.29096657	-0.66109918	-0.47466424	0.23582814	-0.76962579	0.25801475	0.08968018	-0.73580012	0.25870528	0.29598153	-0.76405673	-0.45505163	-0.34096795	-0.52065748	-0.22170361	-0.61088316
1687	16.86000000	-0.94242671	-0.18051684	0.02639388	-0.67009201	0.16689273	-0.62098198	-0.27163551	-0.74838055	-0.29222072	-0.65843000	-0.47560435	0.23502851	-0.77088886	0.26681373	0.10330117	-0.73612468	0.25596511	0.30448436	-0.77351062	-0.45313790	-0.32751140	-0.53114252	-0.20948152	-0.60017407
1688	16.87000000	-0.94096646	-0.18306797	0.02176635	-0.67136281	0.16868119	-0.62311782	-0.25828163	-0.75032007	-0.29430141	-0.65614033	-0.47967048	0.22872132	-0.76632541	0.26902844	0.11305314	-0.73352091	0.26025040	0.31127804	-0.78325791	-0.45529514	-0.30714631	-0.55997318	-0.19900793	-0.57972942
1689	16.88000000	-0.93826982	-0.18410567	0.01343435	-0.67350788	0.16711127	-0.61631263	-0.24086221	-0.75525003	-0.29842550	-0.66241206	-0.48068300	0.22188083	-0.76466940	0.26537952	0.11199863	-0.73134441	0.25619379	0.32336047	-0.78333898	-0.45514293	-0.28368498	-0.58785177	-0.18961800	-0.55963761
1690	16.89000000	-0.93879614	-0.18329324	0.00607086	-0.66970128	0.16531648	-0.61558055	-0.23072402	-0.75770019	-0.30551396	-0.66244255	-0.47940192	0.22231800	-0.76865589	0.27391599	0.11516147	-0.72208481	0.25754633	0.33516184	-0.79542416	-0.45439041	-0.26075054	-0.60168126	-0.18787633	-0.54014975
1691	16.90000000	-0.93856349	-0.18629862	0.00488471	-0.67832785	0.16158218	-0.61701206	-0.21087772	-0.76155621	-0.31103192	-0.66334460	-0.48482596	0.21910982	-0.75982980	0.28132027	0.11409287	-0.71683523	0.26348539	0.33498457	-0.80843401	-0.45337144	-0.23135625	-0.61540770	-0.18360206	-0.52478951
1692	16.91000000	-0.93091226	-0.18744767	-0.00427894	-0.67591792	0.15954492	-0.61732785	-0.18797374	-0.76123096	-0.31388410	-0.66516865	-0.48775748	0.21139374	-0.75455554	0.28930970	0.12097269	-0.71508065	0.26312624	0.33960727	-0.81202691	-0.45429308	-0.19776634	-0.62055455	-0.17680580	-0.51965807
1693	16.92000000	-0.93217885	-0.18643707	-0.01792144	-0.67095070	0.15134951	-0.62144065	-0.17647794	-0.75943894	-0.31822830	-0.66874940	-0.48202262	0.20530473	-0.75258555	0.30323382	0.12384964	-0.71364479	0.26659089	0.34766071	-0.81769585	-0.45897913	-0.16211953	-0.62145909	-0.17765649	-0.52102996
1694	16.93000000	-0.94104961	-0.19039855	-0.02446992	-0.68199816	0.14295679	-0.61541754	-0.16098324	-0.76821404	-0.32531195	-0.67200936	-0.47892816	0.19477433	-0.74721650	0.30986063	0.12886800	-0.71485417	0.27259282	0.34875876	-0.82225021	-0.45780753	-0.12564966	-0.62758797	-0.18056173	-0.51872071
1695	16.94000000	-0.93945535	-0.19381374	-0.02415212	-0.68293539	0.13378883	-0.61473507	-0.13857235	-0.76231066	-0.33047378	-0.67446315	-0.47802750	0.18033256	-0.74585169	0.30870377	0.13823561	-0.71844265	0.26956483	0.35129824	-0.83007146	-0.46058686	-0.07484647	-0.63424103	-0.18884221	-0.51309568
1696	16.95000000	-0.93732824	-0.19471662	-0.02668695	-0.67973538	0.12935300	-0.61445394	-0.12115187	-0.76069921	-0.32947831	-0.68125591	-0.47096223	0.17441029	-0.74200025	0.30835229	0.15602030	-0.71441636	0.26334436	0.35423388	-0.82978460	-0.46522640	-0.02934309	-0.63165116	-0.19911018	-0.50476144
1697	16.96000000	-0.93476758	-0.19476928	-0.03648918	-0.68641133	0.13133078	-0.61522366	-0.10609890	-0.76725074	-0.33708675	-0.69041770	-0.46356433	0.16862677	-0.73857082	0.31146434	0.16700570	-0.70700490	0.26088696	0.36100909	-0.82335491	-0.46998118	0.02040245	-0.63541983	-0.20828944	-0.50414182
1698	16.97000000	-0.93419659	-0.20033875	-0.03863019	-0.68634529	0.12602449	-0.61178503	-0.08824213	-0.76496494	-0.34545846	-0.70480827	-0.45725058	0.15279262	-0.73630585	0.31169524	0.17937590	-0.70158329	0.27199391	0.37067400	-0.81890401	-0.47812164	0.08316856	-0.64069763	-0.21351968	-0.49936192
1699	16.98000000	-0.93122708	-0.20135473	-0.04016230	-0.68640288	0.12806176	-0.61106695	-0.06848881	-0.76267138	-0.35065829	-0.71245659	-0.44592848	0.13936324	-0.72749377	0.31409845	0.19184644	-0.69915669	0.28675778	0.36945941	-0.80324894	-0.48419987	0.13608895	-0.64004891	-0.21763107	-0.49227675
1700	16.99000000	-0.93128735	-0.19852610	-0.04492274	-0.68745881	0.13031511	-0.61045115	-0.04694999	-0.76125168	-0.36384602	-0.71953611	-0.43701648	0.12340556	-0.72670669	0.31673807	0.19386233	-0.68935319	0.29374334	0.37249547	-0.78316149	-0.49596837	0.18143651	-0.63714999	-0.22357314	-0.49310833
1701	17	-0.93398528	-0.20409513	-0.04268773	-0.69047013	0.13143982	-0.60646157	-0.02868272	-0.75527889	-0.37163027	-0.72977134	-0.42780296	0.10123927	-0.72508511	0.32434575	0.19316562	-0.68118868	0.30538875	0.37444283	-0.75984285	-0.50900940	0.22407287	-0.63559989	-0.22840748	-0.48856704
1702	17.01000000	-0.93454579	-0.20799413	-0.04067334	-0.68951618	0.13793111	-0.60341269	-0.01763989	-0.74985876	-0.38232766	-0.74006927	-0.41030594	0.08125647	-0.72009113	0.33772079	0.18508831	-0.68049673	0.31624543	0.37704632	-0.74072973	-0.52390314	0.25958264	-0.63664395	-0.23636357	-0.48624712
1703	17.02000000	-0.92905642	-0.20504636	-0.04449730	-0.68470576	0.14102298	-0.60726741	-0.00476174	-0.74629271	-0.39227109	-0.75404283	-0.39829005	0.06353935	-0.71861910	0.35586621	0.18147128	-0.67186553	0.31939978	0.38406462	-0.71196171	-0.53569791	0.28947568	-0.63145245	-0.23815826	-0.48618174
1704	17.03000000	-0.92637489	-0.20848356	-0.04296370	-0.68747490	0.14120811	-0.60808153	0.00641272	-0.74052477	-0.40234787	-0.76353490	-0.38224511	0.04718375	-0.71891157	0.36756812	0.17050609	-0.66997414	0.32433694	0.38521694	-0.68360892	-0.55233024	0.31045001	-0.63130764	-0.24417265	-0.48101241
1705	17.04000000	-0.92898140	-0.21645176	-0.04564077	-0.68621291	0.14500447	-0.60860133	0.01695175	-0.73618745	-0.40614518	-0.77113183	-0.36594151	0.02973814	-0.71368960	0.37543031	0.16274687	-0.66603115	0.32755682	0.39504374	-0.66181612	-0.56946665	0.32486553	-0.62819924	-0.25072915	-0.47551063
1706	17.05000000	-0.92480750	-0.21736528	-0.04742398	-0.68263272	0.14815902	-0.61364153	0.02557191	-0.73342832	-0.41011405	-0.77861529	-0.35497636	0.01742693	-0.70980965	0.38583766	0.16980644	-0.65775439	0.32924151	0.39978073	-0.62893309	-0.58703942	0.34471063	-0.62670865	-0.25034814	-0.47671721
1707	17.06000000	-0.92729874	-0.21901712	-0.04264921	-0.68066933	0.15078832	-0.61343755	0.02907413	-0.72161078	-0.42657238	-0.78725800	-0.33982381	0.01356251	-0.71205682	0.38770669	0.17020239	-0.65690043	0.32560201	0.40497083	-0.59259288	-0.61536253	0.35848933	-0.62845628	-0.25327991	-0.47598890
